<svg class="svg-icon" style="width: 1em; height: 1em;vertical-align: middle;fill: currentColor;overflow: hidden;" viewBox="0 0 1024 1024" version="1.1" xmlns="http://www.w3.org/2000/svg"><path d="M511.3 511.8m-447.9 0a447.9 447.9 0 1 0 895.8 0 447.9 447.9 0 1 0-895.8 0Z" fill="#238AFF" /><path d="M464.179349 463.394817a5 5 0 1 0 9.871-1.601051 5 5 0 1 0-9.871 1.601051Z" fill="#FFFFFF" /><path d="M594.9 487.6c-15.3 25-60.5 23.9-73.9 23.3-13.4-0.6-39.7 8.6-41.6 22.7-1.8 14.1 18.5 23.4 18.5 23.4l0.5 20.4s-9 0.5-15.9-2.8c-6.8-3.2-35.4-20.2-26.3-50.9 5.1-17.2 27.3-26.6 47.6-31.7l-1.2-110.4c0-0.1 0.1-0.2 0.2-0.2-4.4-4-7.3-10.1-7.3-16.9 0-11.9 8.7-21.6 19.3-21.6 10.6 0 19.3 9.7 19.3 21.6 0 6.7-2.7 12.7-7.1 16.7l-2.3 106.9c6.8-0.9 12-1.2 14.4-1.2 10.4 0 29.3-3.7 31.2-27.6 1.8-23.9-36.8-26.5-36.8-26.5l0.7-19.6s13.6-1 28 3c29.4 8.2 50.3 42.5 32.7 71.4z m-90.8 34.7h20l-1.8 84.4H505l-0.9-84.4zM524 623.8c-17.1 0.6-24.8 10.4-24.8 10.4l0.7 25.2s-2-0.3-4.2-0.9c-6-1.6-10-3.1-12.2-9.7-1.5-4.5-1.6-10.8 1-18.3 6.4-17.9 51.7-19.5 57.8-31.1 6.1-11.7-13.6-14.7-13.6-14.7l1.5-19.1s34.1 8.6 34.1 31.4c0 19.4-23.2 26.2-40.3 26.8z m39.4 64.8c-0.1 0.9-14.9-27.1-36.7-29.6l1.1-25s6.5 2.8 14.4 7.8c17.6 11.1 23.9 25.3 21.2 46.8z m-43.7 38c-0.1 0-0.1 0.1 0 0-0.1 2.5-3.1 4.4-6.7 4.4-3.3 0-6.1-1.6-6.6-3.7h-0.1l-1-93.3h16.4l-2 92.6z m-89.2-252.5c-4.3-1.2-5.5-15.3-1.2-20.3 4.3-4.9 9.2-18.4 17.7-23.3 8.5-4.9 26.3-8 31.8-8.6 5.5-0.6 16.5-8.6 16.5-8.6l0.3 19s-17.4 15.3-32.1 24.5c-14.7 9.3-28.8 18.5-33 17.3z m227.9 45.5l122.4-74-75.7-126.2L587 390.8V252.4H440.2v141.5l-122.3-70.4-73.1 127.8 124 71.4-122.4 74 75.7 126.2 118.1-71.4v138.4H587V648.4l122.3 70.4L782.4 591l-124-71.4z" fill="#FFFFFF" /></svg>